<svg width="540" height="485" viewBox="0 0 540 485" fill="none" xmlns="http://www.w3.org/2000/svg">
<path d="M218.172 146.03V236.758C256.455 98.2064 282.059 184.635 289.082 233.922C325.248 97.7668 346.241 184.605 354.32 233.922M354.32 233.922C435.405 20.2929 469.782 136.456 476.286 233.922C455.664 443.667 362.106 352.57 354.32 233.922ZM260.718 216.911L416.721 191.393M218.172 112.007C165.982 -187.394 142.148 242.195 141.589 245.263M141.589 284.957C-103.096 139.29 31.9547 372.849 168.103 404.037C228.358 518.188 373.201 482.595 423.38 424.645M468.335 424.645C468.335 424.645 453.446 425.918 437.562 378.286C439.849 393.719 436.051 410.012 423.38 424.645M468.335 424.645C434.298 435.986 422.434 428.171 423.38 424.645M468.335 424.645C511.843 377.155 491.027 360.405 491.027 360.405C475.143 460.205 514.145 429.32 534 412.309M459.826 387.025H525.064" stroke="#202020" stroke-width="12" stroke-linecap="round" stroke-linejoin="round"/>
</svg>
